<mxfile host="drawio-plugin" modified="2024-02-03T08:52:57.819Z" agent="5.0 (Windows NT 10.0; Win64; x64) AppleWebKit/537.36 (KHTML, like Gecko) Chrome/111.0.0.0 Safari/537.36" etag="2Xy8o5bzOnnGZFmiCw6b" version="20.5.3" type="embed"><diagram name="Page-1" id="3UclL5kyzWq9DSIwJwr_"><mxGraphModel dx="1384" dy="1633" grid="1" gridSize="10" guides="1" tooltips="1" connect="1" arrows="1" fold="1" page="0" pageScale="1" pageWidth="850" pageHeight="1100" background="#1A1A1A" math="0" shadow="0"><root><mxCell id="0"/><mxCell id="1" parent="0"/><mxCell id="XDPCOqW1gCRxtCuS24-K-14" style="edgeStyle=orthogonalEdgeStyle;rounded=0;orthogonalLoop=1;jettySize=auto;html=1;exitX=1;exitY=0.5;exitDx=0;exitDy=0;" parent="1" source="XDPCOqW1gCRxtCuS24-K-2" target="XDPCOqW1gCRxtCuS24-K-6" edge="1"><mxGeometry relative="1" as="geometry"/></mxCell><mxCell id="XDPCOqW1gCRxtCuS24-K-16" style="edgeStyle=orthogonalEdgeStyle;rounded=0;orthogonalLoop=1;jettySize=auto;html=1;exitX=1;exitY=0.5;exitDx=0;exitDy=0;entryX=0.5;entryY=0;entryDx=0;entryDy=0;" parent="1" edge="1"><mxGeometry relative="1" as="geometry"><mxPoint x="200" y="-115" as="sourcePoint"/><mxPoint x="560" y="40" as="targetPoint"/></mxGeometry></mxCell><mxCell id="XDPCOqW1gCRxtCuS24-K-17" style="edgeStyle=orthogonalEdgeStyle;rounded=0;orthogonalLoop=1;jettySize=auto;html=1;exitX=0.5;exitY=1;exitDx=0;exitDy=0;entryX=0;entryY=0.5;entryDx=0;entryDy=0;" parent="1" source="XDPCOqW1gCRxtCuS24-K-2" target="XDPCOqW1gCRxtCuS24-K-5" edge="1"><mxGeometry relative="1" as="geometry"/></mxCell><mxCell id="XDPCOqW1gCRxtCuS24-K-19" style="edgeStyle=orthogonalEdgeStyle;rounded=0;orthogonalLoop=1;jettySize=auto;html=1;exitX=0.5;exitY=1;exitDx=0;exitDy=0;entryX=0.5;entryY=0;entryDx=0;entryDy=0;" parent="1" source="XDPCOqW1gCRxtCuS24-K-2" target="XDPCOqW1gCRxtCuS24-K-10" edge="1"><mxGeometry relative="1" as="geometry"/></mxCell><mxCell id="4" style="edgeStyle=orthogonalEdgeStyle;rounded=0;orthogonalLoop=1;jettySize=auto;html=1;exitX=0.5;exitY=1;exitDx=0;exitDy=0;entryX=1;entryY=0.5;entryDx=0;entryDy=0;" parent="1" source="XDPCOqW1gCRxtCuS24-K-2" target="3" edge="1"><mxGeometry relative="1" as="geometry"/></mxCell><mxCell id="XDPCOqW1gCRxtCuS24-K-2" value="&lt;h3 style=&quot;font-size: 18px;&quot;&gt;&lt;font face=&quot;Comic Sans MS&quot; style=&quot;font-size: 18px;&quot;&gt;Gateway&lt;/font&gt;&lt;/h3&gt;" style="rounded=0;whiteSpace=wrap;html=1;fontSize=18;fillColor=#f5f5f5;strokeColor=#666666;fontColor=#333333;" parent="1" vertex="1"><mxGeometry x="57.5" y="-150" width="165" height="70" as="geometry"/></mxCell><mxCell id="XDPCOqW1gCRxtCuS24-K-32" style="edgeStyle=orthogonalEdgeStyle;rounded=0;orthogonalLoop=1;jettySize=auto;html=1;exitX=0.5;exitY=1;exitDx=0;exitDy=0;entryX=1;entryY=0.5;entryDx=0;entryDy=0;strokeColor=#FF0000;" parent="1" source="XDPCOqW1gCRxtCuS24-K-4" target="XDPCOqW1gCRxtCuS24-K-30" edge="1"><mxGeometry relative="1" as="geometry"/></mxCell><mxCell id="XDPCOqW1gCRxtCuS24-K-4" value="&lt;h3&gt;&lt;font face=&quot;Comic Sans MS&quot;&gt;Integrations&lt;/font&gt;&lt;/h3&gt;" style="rounded=0;whiteSpace=wrap;html=1;strokeColor=#00CC00;" parent="1" vertex="1"><mxGeometry x="500" y="110" width="140" height="30" as="geometry"/></mxCell><mxCell id="XDPCOqW1gCRxtCuS24-K-31" style="edgeStyle=orthogonalEdgeStyle;rounded=0;orthogonalLoop=1;jettySize=auto;html=1;exitX=0.5;exitY=1;exitDx=0;exitDy=0;strokeColor=#FF0000;" parent="1" source="XDPCOqW1gCRxtCuS24-K-5" target="XDPCOqW1gCRxtCuS24-K-30" edge="1"><mxGeometry relative="1" as="geometry"/></mxCell><mxCell id="XDPCOqW1gCRxtCuS24-K-5" value="&lt;h3&gt;&lt;font face=&quot;Comic Sans MS&quot;&gt;OAuth2&lt;/font&gt;&lt;/h3&gt;" style="rounded=0;whiteSpace=wrap;html=1;gradientColor=none;strokeColor=#009900;" parent="1" vertex="1"><mxGeometry x="280" y="40" width="140" height="30" as="geometry"/></mxCell><mxCell id="XDPCOqW1gCRxtCuS24-K-25" style="rounded=1;orthogonalLoop=1;jettySize=auto;html=1;exitX=0;exitY=0.5;exitDx=0;exitDy=0;entryX=0.75;entryY=0;entryDx=0;entryDy=0;targetPerimeterSpacing=0;edgeStyle=orthogonalEdgeStyle;curved=1;" parent="1" source="XDPCOqW1gCRxtCuS24-K-6" target="XDPCOqW1gCRxtCuS24-K-10" edge="1"><mxGeometry relative="1" as="geometry"/></mxCell><mxCell id="XDPCOqW1gCRxtCuS24-K-29" style="edgeStyle=orthogonalEdgeStyle;rounded=0;orthogonalLoop=1;jettySize=auto;html=1;exitX=0.75;exitY=0;exitDx=0;exitDy=0;" parent="1" source="XDPCOqW1gCRxtCuS24-K-6" target="XDPCOqW1gCRxtCuS24-K-27" edge="1"><mxGeometry relative="1" as="geometry"/></mxCell><mxCell id="XDPCOqW1gCRxtCuS24-K-6" value="&lt;h3&gt;&lt;font face=&quot;Comic Sans MS&quot;&gt;Auth&lt;/font&gt;&lt;/h3&gt;" style="rounded=0;whiteSpace=wrap;html=1;gradientColor=none;strokeColor=#0066CC;" parent="1" vertex="1"><mxGeometry x="280" y="-60" width="140" height="30" as="geometry"/></mxCell><mxCell id="XDPCOqW1gCRxtCuS24-K-12" style="edgeStyle=orthogonalEdgeStyle;rounded=0;orthogonalLoop=1;jettySize=auto;html=1;exitX=0;exitY=0.5;exitDx=0;exitDy=0;" parent="1" source="XDPCOqW1gCRxtCuS24-K-7" target="XDPCOqW1gCRxtCuS24-K-5" edge="1"><mxGeometry relative="1" as="geometry"/></mxCell><mxCell id="XDPCOqW1gCRxtCuS24-K-13" style="edgeStyle=orthogonalEdgeStyle;rounded=0;orthogonalLoop=1;jettySize=auto;html=1;exitX=0.5;exitY=1;exitDx=0;exitDy=0;entryX=0.5;entryY=0;entryDx=0;entryDy=0;" parent="1" source="XDPCOqW1gCRxtCuS24-K-7" target="XDPCOqW1gCRxtCuS24-K-4" edge="1"><mxGeometry relative="1" as="geometry"/></mxCell><mxCell id="XDPCOqW1gCRxtCuS24-K-7" value="&lt;h3&gt;&lt;font face=&quot;Comic Sans MS&quot;&gt;Tokens&lt;/font&gt;&lt;/h3&gt;" style="rounded=0;whiteSpace=wrap;html=1;strokeColor=#CC0066;" parent="1" vertex="1"><mxGeometry x="500" y="40" width="140" height="30" as="geometry"/></mxCell><mxCell id="XDPCOqW1gCRxtCuS24-K-11" style="edgeStyle=orthogonalEdgeStyle;rounded=0;orthogonalLoop=1;jettySize=auto;html=1;exitX=0.5;exitY=1;exitDx=0;exitDy=0;entryX=0.5;entryY=0;entryDx=0;entryDy=0;startArrow=classic;startFill=1;strokeColor=#007FFF;" parent="1" source="XDPCOqW1gCRxtCuS24-K-8" target="XDPCOqW1gCRxtCuS24-K-7" edge="1"><mxGeometry relative="1" as="geometry"/></mxCell><mxCell id="XDPCOqW1gCRxtCuS24-K-8" value="&lt;h3&gt;&lt;font face=&quot;Comic Sans MS&quot;&gt;TokensAsync&lt;/font&gt;&lt;/h3&gt;" style="rounded=0;whiteSpace=wrap;html=1;perimeterSpacing=2;strokeColor=#CC0066;" parent="1" vertex="1"><mxGeometry x="570" y="-70" width="140" height="30" as="geometry"/></mxCell><mxCell id="XDPCOqW1gCRxtCuS24-K-10" value="&lt;h3&gt;&lt;font face=&quot;Comic Sans MS&quot;&gt;Passport&lt;/font&gt;&lt;/h3&gt;" style="rounded=0;whiteSpace=wrap;html=1;strokeColor=#CC0066;" parent="1" vertex="1"><mxGeometry x="70" y="109.5" width="140" height="30" as="geometry"/></mxCell><mxCell id="XDPCOqW1gCRxtCuS24-K-24" style="rounded=0;orthogonalLoop=1;jettySize=auto;html=1;exitX=1;exitY=0.5;exitDx=0;exitDy=0;entryX=0.35;entryY=-0.022;entryDx=0;entryDy=0;entryPerimeter=0;edgeStyle=orthogonalEdgeStyle;" parent="1" source="XDPCOqW1gCRxtCuS24-K-6" target="XDPCOqW1gCRxtCuS24-K-7" edge="1"><mxGeometry relative="1" as="geometry"/></mxCell><mxCell id="XDPCOqW1gCRxtCuS24-K-27" value="&lt;h3&gt;&lt;font face=&quot;Comic Sans MS&quot;&gt;Mailer&lt;/font&gt;&lt;/h3&gt;" style="rounded=0;whiteSpace=wrap;html=1;fillColor=#FF0080;strokeColor=#b85450;" parent="1" vertex="1"><mxGeometry x="315" y="-220" width="140" height="30" as="geometry"/></mxCell><mxCell id="XDPCOqW1gCRxtCuS24-K-30" value="&lt;h3&gt;&lt;font face=&quot;Comic Sans MS&quot;&gt;External API&lt;/font&gt;&lt;/h3&gt;" style="rounded=0;whiteSpace=wrap;html=1;" parent="1" vertex="1"><mxGeometry x="255" y="200" width="190" height="40" as="geometry"/></mxCell><mxCell id="XDPCOqW1gCRxtCuS24-K-39" value="" style="swimlane;startSize=0;" parent="1" vertex="1"><mxGeometry x="10" y="-530" width="430" height="150" as="geometry"/></mxCell><mxCell id="XDPCOqW1gCRxtCuS24-K-37" value="&lt;font style=&quot;font-size: 14px;&quot; face=&quot;Comic Sans MS&quot;&gt;GRPC&lt;/font&gt;" style="text;html=1;align=center;verticalAlign=middle;resizable=0;points=[];autosize=1;strokeColor=none;fillColor=none;" parent="XDPCOqW1gCRxtCuS24-K-39" vertex="1"><mxGeometry x="20" width="60" height="30" as="geometry"/></mxCell><mxCell id="XDPCOqW1gCRxtCuS24-K-33" value="" style="endArrow=classic;html=1;rounded=0;" parent="XDPCOqW1gCRxtCuS24-K-39" edge="1"><mxGeometry width="50" height="50" relative="1" as="geometry"><mxPoint x="10" y="30" as="sourcePoint"/><mxPoint x="90" y="30" as="targetPoint"/></mxGeometry></mxCell><mxCell id="XDPCOqW1gCRxtCuS24-K-41" value="&lt;font style=&quot;font-size: 14px;&quot; face=&quot;Comic Sans MS&quot;&gt;Nats&lt;/font&gt;" style="text;html=1;align=center;verticalAlign=middle;resizable=0;points=[];autosize=1;strokeColor=none;fillColor=none;" parent="XDPCOqW1gCRxtCuS24-K-39" vertex="1"><mxGeometry x="20" y="50" width="60" height="30" as="geometry"/></mxCell><mxCell id="XDPCOqW1gCRxtCuS24-K-42" value="" style="endArrow=classic;html=1;rounded=0;fillColor=#dae8fc;strokeColor=#0066CC;" parent="XDPCOqW1gCRxtCuS24-K-39" edge="1"><mxGeometry width="50" height="50" relative="1" as="geometry"><mxPoint x="10" y="80" as="sourcePoint"/><mxPoint x="90" y="80" as="targetPoint"/></mxGeometry></mxCell><mxCell id="XDPCOqW1gCRxtCuS24-K-43" value="&lt;font style=&quot;font-size: 12px;&quot; face=&quot;Comic Sans MS&quot;&gt;REST JSON&lt;/font&gt;" style="text;html=1;align=center;verticalAlign=middle;resizable=0;points=[];autosize=1;strokeColor=none;fillColor=none;" parent="XDPCOqW1gCRxtCuS24-K-39" vertex="1"><mxGeometry x="5" y="100" width="90" height="30" as="geometry"/></mxCell><mxCell id="XDPCOqW1gCRxtCuS24-K-44" value="" style="endArrow=classic;html=1;rounded=0;strokeColor=#FF0000;" parent="XDPCOqW1gCRxtCuS24-K-39" edge="1"><mxGeometry width="50" height="50" relative="1" as="geometry"><mxPoint x="10" y="130" as="sourcePoint"/><mxPoint x="90" y="130" as="targetPoint"/></mxGeometry></mxCell><mxCell id="XDPCOqW1gCRxtCuS24-K-47" value="&lt;h3&gt;&lt;font face=&quot;Comic Sans MS&quot;&gt;not implemented&lt;/font&gt;&lt;/h3&gt;" style="rounded=0;whiteSpace=wrap;html=1;fillColor=#FF0080;strokeColor=#b85450;" parent="XDPCOqW1gCRxtCuS24-K-39" vertex="1"><mxGeometry x="110" y="10" width="140" height="30" as="geometry"/></mxCell><mxCell id="XDPCOqW1gCRxtCuS24-K-48" value="&lt;h3&gt;&lt;font face=&quot;Comic Sans MS&quot;&gt;db read&lt;/font&gt;&lt;/h3&gt;" style="rounded=0;whiteSpace=wrap;html=1;gradientColor=none;strokeColor=#0066CC;" parent="XDPCOqW1gCRxtCuS24-K-39" vertex="1"><mxGeometry x="110" y="60" width="140" height="30" as="geometry"/></mxCell><mxCell id="XDPCOqW1gCRxtCuS24-K-49" value="&lt;h3&gt;&lt;font face=&quot;Comic Sans MS&quot;&gt;no db&lt;/font&gt;&lt;/h3&gt;" style="rounded=0;whiteSpace=wrap;html=1;gradientColor=none;strokeColor=#009900;" parent="XDPCOqW1gCRxtCuS24-K-39" vertex="1"><mxGeometry x="110" y="110" width="140" height="30" as="geometry"/></mxCell><mxCell id="XDPCOqW1gCRxtCuS24-K-50" value="&lt;h3&gt;&lt;font face=&quot;Comic Sans MS&quot;&gt;db readwrite&lt;/font&gt;&lt;/h3&gt;" style="rounded=0;whiteSpace=wrap;html=1;perimeterSpacing=2;strokeColor=#CC0066;" parent="XDPCOqW1gCRxtCuS24-K-39" vertex="1"><mxGeometry x="270" y="10" width="140" height="30" as="geometry"/></mxCell><mxCell id="15" style="edgeStyle=orthogonalEdgeStyle;rounded=0;orthogonalLoop=1;jettySize=auto;html=1;exitX=0.5;exitY=1;exitDx=0;exitDy=0;entryX=0;entryY=0.5;entryDx=0;entryDy=0;" parent="1" source="3" target="XDPCOqW1gCRxtCuS24-K-10" edge="1"><mxGeometry relative="1" as="geometry"/></mxCell><mxCell id="3" value="&lt;h3&gt;&lt;font face=&quot;Comic Sans MS&quot;&gt;User&lt;/font&gt;&lt;/h3&gt;" style="rounded=1;whiteSpace=wrap;html=1;fillColor=#FF0080;strokeColor=#b85450;glass=0;sketch=0;shadow=0;" parent="1" vertex="1"><mxGeometry x="-140" y="-20" width="140" height="30" as="geometry"/></mxCell><mxCell id="12" style="edgeStyle=orthogonalEdgeStyle;rounded=0;orthogonalLoop=1;jettySize=auto;html=1;exitX=0;exitY=0.5;exitDx=0;exitDy=0;startArrow=none;startFill=0;" parent="1" source="3" target="11" edge="1"><mxGeometry relative="1" as="geometry"><mxPoint x="20" y="100" as="sourcePoint"/></mxGeometry></mxCell><mxCell id="14" style="edgeStyle=orthogonalEdgeStyle;rounded=0;orthogonalLoop=1;jettySize=auto;html=1;exitX=0.5;exitY=1;exitDx=0;exitDy=0;entryX=0.5;entryY=0;entryDx=0;entryDy=0;startArrow=none;startFill=0;" parent="1" source="11" target="13" edge="1"><mxGeometry relative="1" as="geometry"/></mxCell><mxCell id="19" style="edgeStyle=orthogonalEdgeStyle;rounded=0;orthogonalLoop=1;jettySize=auto;html=1;exitX=0.5;exitY=0;exitDx=0;exitDy=0;entryX=0.5;entryY=0;entryDx=0;entryDy=0;" edge="1" parent="1" source="18" target="17"><mxGeometry relative="1" as="geometry"/></mxCell><mxCell id="11" value="&lt;h3&gt;&lt;font face=&quot;Comic Sans MS&quot;&gt;CDN CONTROLLER&lt;/font&gt;&lt;/h3&gt;" style="rounded=1;whiteSpace=wrap;html=1;fillColor=#FF0080;strokeColor=#b85450;glass=0;sketch=0;shadow=0;" parent="1" vertex="1"><mxGeometry x="-280" y="140" width="240" height="30" as="geometry"/></mxCell><mxCell id="13" value="&lt;h3&gt;&lt;font face=&quot;Comic Sans MS&quot;&gt;CDN Node&lt;/font&gt;&lt;/h3&gt;" style="rounded=1;whiteSpace=wrap;html=1;fillColor=#FF0080;strokeColor=#b85450;glass=0;sketch=0;shadow=0;" parent="1" vertex="1"><mxGeometry x="-115" y="210" width="75" height="30" as="geometry"/></mxCell><mxCell id="17" value="&lt;h3&gt;&lt;font face=&quot;Comic Sans MS&quot;&gt;CDN Node&lt;/font&gt;&lt;/h3&gt;" style="rounded=1;whiteSpace=wrap;html=1;fillColor=#FF0080;strokeColor=#b85450;glass=0;sketch=0;shadow=0;" vertex="1" parent="1"><mxGeometry x="-197.5" y="210" width="75" height="30" as="geometry"/></mxCell><mxCell id="18" value="&lt;h3&gt;&lt;font face=&quot;Comic Sans MS&quot;&gt;CDN Node&lt;/font&gt;&lt;/h3&gt;" style="rounded=1;whiteSpace=wrap;html=1;fillColor=#FF0080;strokeColor=#b85450;glass=0;sketch=0;shadow=0;" vertex="1" parent="1"><mxGeometry x="-280" y="210" width="75" height="30" as="geometry"/></mxCell></root></mxGraphModel></diagram></mxfile>